<?xml version="1.0" encoding="utf-8"?>
<!-- Generator: Adobe Illustrator 28.0.0, SVG Export Plug-In . SVG Version: 6.00 Build 0)  -->
<svg version="1.1" id="Layer_2_00000048485519922636764340000007950504847226133931_"
	 xmlns="http://www.w3.org/2000/svg" xmlns:xlink="http://www.w3.org/1999/xlink" x="0px" y="0px" viewBox="0 0 60.2 60.2"
	 style="enable-background:new 0 0 60.2 60.2;" xml:space="preserve">
<style type="text/css">
	.st0{fill:#73AB01;}
	.st1{fill:#D6DDD1;}
	.st2{fill-rule:evenodd;clip-rule:evenodd;fill:#D6DDD1;}
</style>
<g id="Layer_1-2">
	<g>
		<path class="st0" d="M30.1,4.9c13.9,0,25.1,11.3,25.1,25.1S44,55.2,30.1,55.2S4.9,44,4.9,30.1S16.2,4.9,30.1,4.9 M30.1,0
			C13.5,0,0,13.5,0,30.1s13.5,30.1,30.1,30.1s30.1-13.5,30.1-30.1S46.7,0,30.1,0L30.1,0z"/>
		<path class="st1" d="M16.3,16.4l20,5.8l7.1,21.1l-21.2-6.7L16.3,16.4 M9,9.2l9.2,31.4l33,10.4L40.1,18.2L9,9.2C9,9.2,9,9.2,9,9.2z
			"/>
		<polygon class="st2" points="40.1,18.2 51.2,51 18.2,40.6 18.1,40.2 		"/>
	</g>
</g>
</svg>
