<?xml version="1.0" encoding="UTF-8"?>
<svg id="Layer_2" data-name="Layer 2" xmlns="http://www.w3.org/2000/svg" viewBox="0 0 50 50">
  <g id="Layer_1-2" data-name="Layer 1">
    <g>
      <path d="M9.4,11.45l1.52-.5.48-1.43c1.3-3.87,3.9-7.25,7.27-9.52h-4c-2.55,2.38-4.5,5.37-5.62,8.7l-.1.27-.35.13c-3.27,1.12-6.22,3.02-8.6,5.52v3.98c2.27-3.33,5.6-5.85,9.4-7.15Z"/>
      <path d="M5,9.97v-.22c0-.4-.07-.78-.3-1.05-.15-.22-.42-.42-.8-.52.62-.8-.3-1.35-.3-1.35,0,0-.88,1.12-1.5.5-.1-.1-.17-.2-.25-.33-.12-.17-.22-.35-.3-.53v-.05c-.1-.17-.15-.38-.2-.58-.08-.27-.1-.55-.1-.85,0-.81.26-1.56.7-2.17l1.62,1.62v2.05l3.97,1-.91-4.06h-2.33l-1.48-1.48c.61-.44,1.36-.7,2.17-.7.3,0,.57.03.85.1.2.05.4.1.57.2.02-.03.02,0,.05,0,.17.08.37.17.52.3.1.05.2.12.28.2.02.03.05.03.05.05.62.62-.5,1.5-.5,1.5,0,0,.55.92,1.35.3.1.38.3.65.52.8.28.22.65.3,1.05.3h.22C9.97,2.25,7.75,0,5,0c-1.15,0-2.2.41-3.05,1.07L.87,0h-.87v.87l1.07,1.07c-.66.85-1.07,1.9-1.07,3.05,0,2.75,2.25,4.97,5,4.97Z"/>
      <path d="M11.77,17.97c-.2.07-.38.3-.45.53-.08.15-.1.4-.03.62-.03-.03-.05-.03-.08-.05-.17-.1-.35-.2-.55-.27-1.73-.6-3.6.3-4.23,2l.12.05c.25.07.5.12.73.05.17-.05.37-.18.52-.37.35.55.9.1.9.1,0,0-.5-.78.03-1.02,0-.03.02-.03.05-.03.05-.03.12-.05.2-.08.15-.03.27-.05.4-.05h.03c.12-.03.27,0,.4,0,.2.02.38.07.55.12.1.03.18.07.28.12.03,0,.05.03.08.05h.05c.28.17.53.37.7.62v.07c.22.27.37.55.45.88v.02c.05.23.1.45.07.68,0,.25-.05.5-.12.72-.07.2-.15.35-.25.53-.08.1-.17.23-.27.3v.03c-.08.1-.2.2-.3.27-.08.05-.15.1-.23.15-.53.23-.83-.65-.83-.65,0,0-.7.13-.5.75-.25,0-.67-.13-1.12.17-.2.13-.9.7-.9.7,0,0,.7.57.9.7.45.3.87.17,1.12.17-.2.62.5.75.5.75,0,0,.3-.88.83-.65.08.05.15.1.23.15.1.07.22.18.3.27v.03c.1.07.2.2.27.3.1.18.18.33.25.53.08.22.12.47.12.72.03.23-.02.45-.07.68v.02c-.08.33-.23.6-.45.88v.07c-.17.25-.42.45-.7.62h-.05s-.05.05-.08.05c-.1.05-.18.1-.28.12-.17.05-.35.1-.55.12-.12,0-.27.03-.4,0h-.03c-.12,0-.25-.02-.4-.05-.08-.03-.15-.05-.2-.08-.03,0-.05,0-.05-.03-.52-.25-.03-1.02-.03-1.02,0,0-.55-.45-.9.1-.15-.2-.35-.33-.52-.37-.23-.08-.47-.02-.73.05l-.12.05c.62,1.7,2.5,2.6,4.23,2,.2-.07.38-.18.55-.27.03-.03.05-.03.08-.05-.08.23-.05.47.03.62.07.23.25.45.45.53.18.08.72.15.72.15,0,0-.28-.68-.18-1,.13-.47.15-.97.05-1.42.5-.8.62-1.83.27-2.8-.35-.95-1.1-1.65-2-1.95.9-.3,1.65-1,2-1.95.35-.97.23-2-.27-2.8.1-.45.08-.95-.05-1.42-.1-.33.18-1,.18-1,0,0-.55.07-.72.15Z"/>
      <polygon points="18.71 18.74 18.71 17.36 16.94 16.91 17.34 18.74 18.71 18.74"/>
      <path d="M41.05,8.97l-.1-.27c-1.13-3.33-3.07-6.32-5.62-8.7h-4c3.37,2.27,5.97,5.65,7.27,9.52l.47,1.43,1.52.5c3.8,1.3,7.13,3.83,9.4,7.15v-3.98c-2.38-2.5-5.33-4.4-8.6-5.52l-.35-.13Z"/>
      <path d="M50,0h-.87l-1.07,1.07c-.85-.66-1.9-1.07-3.05-1.07-2.75,0-4.97,2.25-4.97,5h.22c.4,0,.77-.08,1.05-.3.22-.15.42-.42.52-.8.8.62,1.35-.3,1.35-.3,0,0-1.12-.88-.5-1.5,0-.02.03-.02.05-.05.08-.08.17-.15.28-.2.15-.12.35-.22.52-.3.03,0,.03-.03.05,0,.18-.1.38-.15.57-.2.28-.07.55-.1.85-.1.81,0,1.56.26,2.17.7l-1.48,1.48h-2.33l-.91,4.06,3.97-1v-2.05l1.62-1.62c.44.61.7,1.36.7,2.17,0,.3-.03.57-.1.85-.05.2-.1.4-.2.58v.05c-.08.17-.17.35-.3.53-.08.12-.15.23-.25.33-.62.62-1.5-.5-1.5-.5,0,0-.92.55-.3,1.35-.38.1-.65.3-.8.52-.23.27-.3.65-.3,1.05v.22c2.75,0,5-2.23,5-4.97,0-1.15-.41-2.2-1.07-3.05l1.07-1.07v-.87Z"/>
      <path d="M26.95,12.72c.97.35,2,.23,2.8-.27.45.1.95.08,1.42-.05.33-.1,1,.17,1,.17,0,0-.07-.55-.15-.72-.07-.2-.3-.38-.53-.45-.15-.08-.4-.1-.62-.03.03-.03.03-.05.05-.08.1-.17.2-.35.27-.55.6-1.72-.3-3.6-2-4.22l-.05.12c-.07.25-.12.5-.05.73.05.17.17.37.37.52-.55.35-.1.9-.1.9,0,0,.78-.5,1.02.03.03,0,.03.03.03.05.03.05.05.12.08.2.03.15.05.27.05.4v.03c.03.12,0,.27,0,.4-.02.2-.07.38-.12.55-.03.1-.07.18-.12.27,0,.03-.03.05-.05.08v.05c-.17.28-.37.53-.62.7h-.07c-.28.22-.55.37-.88.45h-.02c-.23.05-.45.1-.67.07-.25,0-.5-.05-.72-.12-.2-.07-.35-.15-.53-.25-.1-.08-.23-.17-.3-.27h-.03c-.1-.08-.2-.2-.28-.3-.05-.08-.1-.15-.15-.23-.23-.53.65-.83.65-.83,0,0-.13-.7-.75-.5,0-.25.13-.67-.17-1.12-.13-.2-.7-.9-.7-.9,0,0-.57.7-.7.9-.3.45-.17.87-.17,1.12-.62-.2-.75.5-.75.5,0,0,.88.3.65.83-.05.08-.1.15-.15.23-.07.1-.18.22-.27.3h-.03c-.07.1-.2.2-.3.27-.18.1-.33.18-.53.25-.22.08-.48.12-.72.12-.23.03-.45-.02-.68-.07h-.02c-.33-.08-.6-.23-.88-.45h-.07c-.25-.18-.45-.42-.62-.7v-.05s-.05-.05-.05-.08c-.05-.1-.1-.17-.12-.27-.05-.17-.1-.35-.12-.55,0-.12-.03-.27,0-.4v-.03c0-.12.02-.25.05-.4.03-.08.05-.15.08-.2,0-.03,0-.05.03-.05.25-.52,1.02-.03,1.02-.03,0,0,.45-.55-.1-.9.2-.15.33-.35.37-.52.08-.23.03-.47-.05-.73l-.05-.12c-1.7.62-2.6,2.5-2,4.22.07.2.18.38.27.55.03.03.03.05.05.08-.23-.08-.48-.05-.62.03-.23.07-.45.25-.53.45-.08.17-.15.72-.15.72,0,0,.68-.27,1-.17.47.13.97.15,1.42.05.8.5,1.83.62,2.8.27.95-.35,1.65-1.1,1.95-2,.3.9,1,1.65,1.95,2Z"/>
      <polygon points="33.06 16.91 31.29 17.36 31.29 18.74 32.66 18.74 33.06 16.91"/>
      <path d="M11.4,40.47l-.48-1.42-1.52-.5c-3.8-1.3-7.13-3.83-9.4-7.15v3.98c2.38,2.5,5.33,4.4,8.6,5.52l.35.13.1.27c1.13,3.33,3.07,6.32,5.62,8.7h4c-3.37-2.27-5.97-5.65-7.27-9.53Z"/>
      <path d="M8.7,45.3c-.22.15-.42.42-.52.8-.8-.62-1.35.3-1.35.3,0,0,1.12.88.5,1.5,0,.02-.03.02-.05.05-.08.08-.18.15-.28.2-.15.12-.35.22-.52.3-.03,0-.03.03-.05,0-.18.1-.38.15-.57.2-.28.07-.55.1-.85.1-.81,0-1.56-.26-2.17-.7l1.48-1.48h2.33l.91-4.06-3.97,1v2.05l-1.62,1.62c-.44-.61-.7-1.36-.7-2.17,0-.3.03-.57.1-.85.05-.2.1-.4.2-.58v-.05c.08-.18.18-.35.3-.53.08-.12.15-.23.25-.33.62-.62,1.5.5,1.5.5,0,0,.92-.55.3-1.35.38-.1.65-.3.8-.52.23-.27.3-.65.3-1.05v-.22c-2.75,0-5,2.23-5,4.97,0,1.15.41,2.2,1.07,3.05l-1.07,1.07v.87h.87l1.07-1.07c.85.66,1.9,1.07,3.05,1.07,2.75,0,4.97-2.25,4.97-5h-.22c-.4,0-.78.08-1.05.3Z"/>
      <polygon points="16.94 33.09 18.71 32.64 18.71 31.26 17.34 31.26 16.94 33.09"/>
      <path d="M25.7,31.47c.3-.45.17-.87.17-1.12.62.2.75-.5.75-.5,0,0-.88-.3-.65-.83.05-.08.1-.15.15-.23.07-.1.18-.22.28-.3h.03c.07-.1.2-.2.3-.28.09-.05.19-.09.28-.13,0,.59.15,1.17.45,1.66-.1.45-.08.95.05,1.42.1.33-.18,1-.18,1,0,0,.55-.07.72-.15.2-.07.38-.3.45-.53.08-.15.1-.4.03-.62.03.03.05.03.08.05.17.1.35.2.55.27.05.02.1,0,.15.02-.1.17-.24.54.16.8-.2.15-.33.35-.37.52-.08.23-.03.48.05.73l.05.12c1.03-.38,1.71-1.23,1.99-2.21.97-.29,1.81-.97,2.19-1.99l-.12-.05c-.25-.07-.5-.12-.73-.05-.17.05-.37.18-.52.37-.25-.4-.61-.27-.79-.17-.01-.04,0-.09-.02-.13-.07-.2-.18-.38-.27-.55-.03-.03-.03-.05-.05-.08.23.08.48.05.62-.03.23-.07.45-.25.53-.45.08-.18.15-.72.15-.72,0,0-.68.27-1,.18-.47-.13-.97-.15-1.42-.05-.5-.31-1.08-.46-1.68-.45.04-.1.08-.2.14-.3.08-.1.18-.23.28-.3v-.03c.08-.1.2-.2.3-.27.08-.05.15-.1.23-.15.53-.23.83.65.83.65,0,0,.7-.13.5-.75.25,0,.67.13,1.12-.17.2-.13.9-.7.9-.7,0,0-.7-.57-.9-.7-.45-.3-.87-.17-1.12-.17.2-.62-.5-.75-.5-.75,0,0-.3.88-.83.65-.08-.05-.15-.1-.23-.15-.1-.07-.22-.17-.3-.27v-.03c-.1-.07-.2-.2-.28-.3-.06-.1-.1-.2-.14-.3.6,0,1.19-.14,1.68-.45.45.1.95.08,1.42-.05.33-.1,1,.18,1,.18,0,0-.07-.55-.15-.72-.07-.2-.3-.38-.53-.45-.15-.08-.4-.1-.62-.03.03-.03.03-.05.05-.08.1-.17.2-.35.27-.55.02-.04,0-.09.02-.13.18.1.53.23.79-.17.15.2.35.33.52.37.23.08.47.03.73-.05l.12-.05c-.37-1.02-1.22-1.7-2.19-1.99-.29-.98-.97-1.83-1.99-2.21l-.05.12c-.07.25-.12.5-.05.73.05.17.17.37.37.52-.41.26-.26.63-.16.8-.05.02-.1,0-.15.02-.2.07-.38.17-.55.27-.03.03-.05.03-.08.05.08-.23.05-.48-.03-.62-.07-.23-.25-.45-.45-.53-.18-.08-.72-.15-.72-.15,0,0,.28.68.18,1-.13.47-.15.97-.05,1.42-.31.49-.45,1.06-.45,1.66-.09-.04-.19-.08-.28-.13-.1-.08-.23-.17-.3-.27h-.03c-.1-.08-.2-.2-.28-.3-.05-.08-.1-.15-.15-.23-.23-.53.65-.83.65-.83,0,0-.13-.7-.75-.5,0-.25.13-.67-.17-1.12-.13-.2-.7-.9-.7-.9,0,0-.57.7-.7.9-.3.45-.17.87-.17,1.12-.62-.2-.75.5-.75.5,0,0,.88.3.65.83-.05.08-.1.15-.15.23-.07.1-.18.22-.27.3h-.03c-.07.1-.2.2-.3.27-.09.05-.19.09-.28.13,0-.59-.15-1.17-.45-1.66.1-.45.08-.95-.05-1.42-.1-.33.18-1,.18-1,0,0-.55.07-.72.15-.2.07-.38.3-.45.53-.08.15-.1.4-.03.62-.03-.03-.05-.03-.08-.05-.17-.1-.35-.2-.55-.27-.05-.02-.1,0-.15-.02.1-.17.24-.54-.16-.8.2-.15.33-.35.37-.52.08-.23.03-.47-.05-.73l-.05-.12c-1.03.38-1.71,1.23-1.99,2.21-.97.29-1.81.97-2.19,1.99l.12.05c.25.07.5.12.73.05.17-.05.37-.18.52-.37.25.4.61.27.79.17.01.04,0,.09.02.13.07.2.18.38.27.55.03.03.03.05.05.08-.23-.08-.48-.05-.62.03-.23.07-.45.25-.53.45-.08.18-.15.72-.15.72,0,0,.68-.28,1-.18.47.13.97.15,1.42.05.5.31,1.08.46,1.68.45-.04.1-.08.2-.14.3-.08.1-.18.23-.28.3v.03c-.08.1-.2.2-.3.27-.08.05-.15.1-.23.15-.53.23-.83-.65-.83-.65,0,0-.7.13-.5.75-.25,0-.67-.13-1.12.17-.2.13-.9.7-.9.7,0,0,.7.57.9.7.45.3.87.17,1.12.17-.2.62.5.75.5.75,0,0,.3-.88.83-.65.08.05.15.1.23.15.1.07.22.18.3.27v.03c.1.07.2.2.28.3.06.1.1.2.14.3-.6,0-1.19.14-1.68.45-.45-.1-.95-.08-1.42.05-.33.1-1-.18-1-.18,0,0,.07.55.15.72.07.2.3.38.53.45.15.08.4.1.62.03-.03.03-.03.05-.05.08-.1.17-.2.35-.27.55-.02.04,0,.09-.02.13-.18-.1-.53-.23-.79.17-.15-.2-.35-.33-.52-.37-.23-.08-.48-.02-.73.05l-.12.05c.37,1.02,1.22,1.7,2.19,1.99.29.98.97,1.83,1.99,2.21l.05-.12c.07-.25.12-.5.05-.73-.05-.17-.17-.37-.37-.52.41-.26.26-.63.16-.8.05-.02.1,0,.15-.02.2-.07.38-.18.55-.27.03-.03.05-.03.08-.05-.08.23-.05.47.03.62.07.23.25.45.45.53.18.08.72.15.72.15,0,0-.27-.68-.18-1,.13-.47.15-.97.05-1.42.31-.49.45-1.06.45-1.66.09.04.19.08.28.13.1.08.23.18.3.28h.03c.1.08.2.2.27.3.05.08.1.15.15.23.23.53-.65.83-.65.83,0,0,.13.7.75.5,0,.25-.13.67.17,1.12.13.2.7.9.7.9,0,0,.57-.7.7-.9ZM28.65,27.92h.02c.33.08.6.23.88.45h.07c.25.17.45.42.62.7v.05s.05.05.05.08c.05.1.1.18.12.27.05.18.1.35.12.55,0,.12.03.27,0,.4v.03s0,.06-.01.09c-.03,0-.07.01-.11.01h-.03c-.12.03-.27,0-.4,0-.2-.02-.38-.07-.55-.12-.1-.03-.18-.07-.28-.12-.03,0-.05-.03-.08-.05h-.05c-.28-.17-.53-.37-.7-.62v-.07c-.22-.27-.37-.55-.45-.88v-.02c-.05-.23-.1-.45-.07-.68,0-.04.02-.07.02-.1.04,0,.08-.02.13-.02.23-.03.45.02.67.07ZM27.91,21.35v-.02c.08-.33.23-.6.45-.88v-.07c.17-.25.42-.45.7-.62h.05s.05-.05.08-.05c.1-.05.18-.1.28-.12.17-.05.35-.1.55-.12.12,0,.27-.03.4,0h.03s.07.01.11.01c0,.03.01.06.01.09v.02c.03.12,0,.27,0,.4-.02.2-.07.38-.12.55-.03.1-.07.18-.12.28,0,.03-.03.05-.05.08v.05c-.17.28-.37.53-.62.7h-.07c-.28.22-.55.37-.88.45h-.02c-.23.05-.45.1-.67.07-.04,0-.08-.02-.13-.02,0-.04-.02-.07-.02-.1-.03-.23.02-.45.07-.68ZM21.35,22.08h-.02c-.33-.08-.6-.23-.88-.45h-.07c-.25-.17-.45-.42-.62-.7v-.05s-.05-.05-.05-.08c-.05-.1-.1-.18-.12-.28-.05-.17-.1-.35-.12-.55,0-.12-.03-.27,0-.4v-.02s0-.06.01-.09c.03,0,.07-.01.11-.01h.02c.12-.03.27,0,.4,0,.2.02.38.07.55.12.1.03.17.07.27.12.02,0,.05.03.08.05h.05c.28.17.53.37.7.62v.07c.22.27.37.55.45.88v.02c.05.23.1.45.07.68,0,.04-.02.07-.02.1-.04,0-.08.02-.13.02-.23.03-.45-.02-.68-.07ZM22.09,28.65v.02c-.08.33-.23.6-.45.88v.07c-.17.25-.42.45-.7.62h-.05s-.05.05-.08.05c-.1.05-.18.1-.27.12-.18.05-.35.1-.55.12-.12,0-.27.03-.4,0h-.02s-.07-.01-.11-.01c0-.03-.01-.06-.01-.09v-.03c-.03-.12,0-.27,0-.4.02-.2.07-.38.12-.55.03-.1.07-.17.12-.27,0-.03.03-.05.05-.08v-.05c.17-.28.37-.53.62-.7h.07c.28-.22.55-.37.88-.45h.02c.23-.05.45-.1.68-.07.04,0,.08.02.13.02,0,.04.02.07.02.1.03.23-.02.45-.07.68ZM23.05,27.2c-.06-.02-.12-.03-.18-.04-.02-.07-.02-.14-.05-.21-.35-.95-1.1-1.65-2-1.95.9-.3,1.65-1,2-1.95.02-.07.03-.14.05-.21.06-.02.12-.02.18-.04.95-.35,1.65-1.1,1.95-2,.3.9,1,1.65,1.95,2,.06.02.12.03.18.04.02.07.02.14.05.21.35.95,1.1,1.65,2,1.95-.9.3-1.65,1-2,1.95-.02.07-.03.14-.05.21-.06.02-.12.02-.18.04-.95.35-1.65,1.1-1.95,2-.3-.9-1-1.65-1.95-2Z"/>
      <path d="M36.25,37.61v-1.36h1.29c6.2,0,11.25-5.05,11.25-11.25s-5.05-11.25-11.25-11.25h-1.29v-1.36c0-6.2-5.05-11.25-11.25-11.25s-11.25,5.05-11.25,11.25v1.36h-1.29c-6.2,0-11.25,5.05-11.25,11.25s5.05,11.25,11.25,11.25h1.29v1.36c0,6.2,5.05,11.25,11.25,11.25s11.25-5.05,11.25-11.25ZM36.25,25v-8.75h1.29c4.82,0,8.75,3.93,8.75,8.75s-3.93,8.75-8.75,8.75h-1.29v-8.75ZM13.75,25v8.75h-1.29c-4.82,0-8.75-3.93-8.75-8.75s3.93-8.75,8.75-8.75h1.29v8.75ZM16.25,12.39c0-4.82,3.93-8.75,8.75-8.75s8.75,3.93,8.75,8.75v1.36h-17.5v-1.36ZM16.25,25v-8.75h17.5v17.5h-17.5v-8.75ZM25,46.36c-4.82,0-8.75-3.93-8.75-8.75v-1.36h17.5v1.36c0,4.82-3.93,8.75-8.75,8.75Z"/>
      <path d="M40.6,38.55l-1.52.5-.47,1.42c-1.3,3.88-3.9,7.25-7.27,9.53h4c2.55-2.38,4.5-5.37,5.62-8.7l.1-.27.35-.13c3.27-1.12,6.22-3.02,8.6-5.52v-3.98c-2.27,3.33-5.6,5.85-9.4,7.15Z"/>
      <path d="M45,40.03v.22c0,.4.07.78.3,1.05.15.22.42.42.8.52-.62.8.3,1.35.3,1.35,0,0,.87-1.13,1.5-.5.1.1.18.2.25.33.12.18.22.35.3.53v.05c.1.18.15.38.2.58.08.27.1.55.1.85,0,.81-.26,1.56-.7,2.17l-1.62-1.62v-2.05l-3.97-1,.91,4.06h2.33l1.48,1.48c-.61.44-1.36.7-2.17.7-.3,0-.57-.03-.85-.1-.2-.05-.4-.1-.57-.2-.03.03-.03,0-.05,0-.17-.08-.37-.18-.52-.3-.1-.05-.2-.12-.28-.2-.02-.03-.05-.03-.05-.05-.62-.62.5-1.5.5-1.5,0,0-.55-.92-1.35-.3-.1-.38-.3-.65-.52-.8-.28-.22-.65-.3-1.05-.3h-.22c0,2.75,2.22,5,4.97,5,1.15,0,2.2-.41,3.05-1.07l1.07,1.07h.87v-.87l-1.07-1.07c.66-.85,1.07-1.9,1.07-3.05,0-2.75-2.25-4.97-5-4.97Z"/>
      <path d="M31.17,37.6c-.47-.13-.97-.15-1.42-.05-.8-.5-1.83-.62-2.8-.27-.95.35-1.65,1.1-1.95,2-.3-.9-1-1.65-1.95-2-.97-.35-2-.23-2.8.27-.45-.1-.95-.08-1.42.05-.33.1-1-.18-1-.18,0,0,.07.55.15.72.07.2.3.38.53.45.15.08.4.1.62.03-.03.03-.03.05-.05.08-.1.17-.2.35-.27.55-.6,1.73.3,3.6,2,4.23l.05-.12c.07-.25.12-.5.05-.73-.05-.17-.17-.37-.37-.52.55-.35.1-.9.1-.9,0,0-.77.5-1.02-.03-.03,0-.03-.03-.03-.05-.03-.05-.05-.12-.08-.2-.02-.15-.05-.27-.05-.4v-.03c-.03-.12,0-.27,0-.4.02-.2.07-.38.12-.55.03-.1.07-.17.12-.27,0-.03.03-.05.05-.08v-.05c.17-.28.37-.53.62-.7h.07c.28-.22.55-.37.88-.45h.02c.23-.05.45-.1.68-.07.25,0,.5.05.72.12.2.07.35.15.53.25.1.08.23.18.3.27h.03c.1.08.2.2.27.3.05.08.1.15.15.23.23.53-.65.83-.65.83,0,0,.13.7.75.5,0,.25-.13.67.17,1.12.13.2.7.9.7.9,0,0,.57-.7.7-.9.3-.45.17-.87.17-1.12.62.2.75-.5.75-.5,0,0-.88-.3-.65-.83.05-.08.1-.15.15-.23.07-.1.18-.22.28-.3h.03c.07-.1.2-.2.3-.27.17-.1.33-.17.53-.25.22-.08.47-.12.72-.12.23-.03.45.02.67.07h.02c.33.08.6.23.88.45h.07c.25.17.45.42.62.7v.05s.05.05.05.08c.05.1.1.18.12.27.05.18.1.35.12.55,0,.12.03.27,0,.4v.03c0,.12-.02.25-.05.4-.02.08-.05.15-.08.2,0,.03,0,.05-.03.05-.25.52-1.02.03-1.02.03,0,0-.45.55.1.9-.2.15-.33.35-.37.52-.08.23-.03.48.05.73l.05.12c1.7-.62,2.6-2.5,2-4.23-.07-.2-.18-.38-.27-.55-.03-.03-.03-.05-.05-.08.23.08.48.05.62-.03.23-.07.45-.25.53-.45.08-.18.15-.72.15-.72,0,0-.68.27-1,.18Z"/>
      <path d="M38.23,32.02c.2-.07.38-.3.45-.53.08-.15.1-.4.03-.62.03.03.05.03.08.05.17.1.35.2.55.27,1.73.6,3.6-.3,4.23-2l-.12-.05c-.25-.07-.5-.12-.73-.05-.17.05-.37.18-.52.37-.35-.55-.9-.1-.9-.1,0,0,.5.77-.03,1.02,0,.03-.03.03-.05.03-.05.03-.12.05-.2.08-.15.03-.27.05-.4.05h-.03c-.12.03-.27,0-.4,0-.2-.02-.38-.07-.55-.12-.1-.03-.18-.07-.28-.12-.03,0-.05-.03-.08-.05h-.05c-.28-.17-.53-.37-.7-.62v-.07c-.22-.27-.37-.55-.45-.88v-.02c-.05-.23-.1-.45-.07-.68,0-.25.05-.5.12-.72.07-.2.15-.35.25-.53.08-.1.17-.23.27-.3v-.03c.08-.1.2-.2.3-.27.08-.05.15-.1.23-.15.53-.23.83.65.83.65,0,0,.7-.13.5-.75.25,0,.67.13,1.12-.17.2-.13.9-.7.9-.7,0,0-.7-.57-.9-.7-.45-.3-.87-.17-1.12-.17.2-.62-.5-.75-.5-.75,0,0-.3.88-.83.65-.08-.05-.15-.1-.23-.15-.1-.07-.22-.17-.3-.27v-.03c-.1-.07-.2-.2-.27-.3-.1-.17-.18-.33-.25-.53-.08-.22-.12-.48-.12-.72-.03-.23.02-.45.07-.68v-.02c.08-.33.23-.6.45-.88v-.07c.17-.25.42-.45.7-.62h.05s.05-.05.08-.05c.1-.05.18-.1.28-.12.17-.05.35-.1.55-.12.12,0,.27-.03.4,0h.03c.12,0,.25.02.4.05.08.03.15.05.2.08.03,0,.05,0,.05.03.52.25.03,1.02.03,1.02,0,0,.55.45.9-.1.15.2.35.33.52.37.23.08.47.03.73-.05l.12-.05c-.62-1.7-2.5-2.6-4.23-2-.2.07-.38.17-.55.27-.03.03-.05.03-.08.05.08-.23.05-.48-.03-.62-.07-.23-.25-.45-.45-.53-.18-.08-.72-.15-.72-.15,0,0,.27.68.17,1-.13.47-.15.97-.05,1.42-.5.8-.62,1.83-.27,2.8.35.95,1.1,1.65,2,1.95-.9.3-1.65,1-2,1.95-.35.97-.23,2,.27,2.8-.1.45-.08.95.05,1.42.1.33-.17,1-.17,1,0,0,.55-.07.72-.15Z"/>
      <polygon points="31.29 31.26 31.29 32.64 33.06 33.09 32.66 31.26 31.29 31.26"/>
    </g>
  </g>
</svg>